# xmcd CD database file
#
# Track frame offsets:
#	150
#	17833
#	35837
#	52209
#	72139
#	93053
#	110585
#	129246
#	150021
#	167877
#	185891
#	202804
#	223878
#
# Disc length: 3219 seconds
#
# Revision: 1
# Processed by: cddbd v1.4PL0 Copyright (c) Steve Scherf et al.
# Submitted via: CDex 1.40Release
#
DISCID=b40c910d
DTITLE=Thalia - Amor a la Mexicana
DYEAR=1997
DGENRE=Pop
TTITLE0=Por Amor
TTITLE1=Noches Sin Luna
TTITLE2=Mujer Latina
TTITLE3=Amor a la Mexicana
TTITLE4=Rosas
TTITLE5=Echa Pa´lante
TTITLE6=Ponle Remedio
TTITLE7=Es Tu Amor
TTITLE8=De Donde Soy
TTITLE9=Dicen Por Ahi
TTITLE10=Amor a la Mexicana (Cuca´s Fiesta Edit)
TTITLE11=Por Amor (Primera Vez Mix)
TTITLE12=Mujer Latina (Zero Mix)
EXTD=1997, EMI Music, Productor Ejecutivo: Emilio Estefan Jr. - Kiker Santander y Bernardo Ossa\n YEAR: 1997 ID3G: 13
EXTT0=
EXTT1=
EXTT2=
EXTT3=
EXTT4=
EXTT5=
EXTT6=
EXTT7=
EXTT8=
EXTT9=
EXTT10=
EXTT11=
EXTT12=
PLAYORDER=
